# xmcd
#
# Track frame offsets:
#	150
#	12401
#	24728
#	36683
#	49810
#	63007
#	73876
#	86213
#	97928
#	110273
#	121120
#	133551
#	146724
#	158449
#	171178
#	182805
#
# Disc length: 2584 seconds
#
# Revision: 0
# Processed by: cddbd v1.5.1PL2 Copyright (c) Steve Scherf et al.
# Submitted via: audiograbber 1.83.01
#
DISCID=dc0a1610
DTITLE=Hank Williams - Jambalaya (On The Bayou)
DYEAR=2004
DGENRE=Country
TTITLE0=Your Cheatin' Heart
TTITLE1=Lovesick Blues
TTITLE2=Take These Chains From My Heart
TTITLE3=Jambalaya (On The Bayou)
TTITLE4=Hey, Good Lookin'
TTITLE5=I Cant Help It (If I'm Still In Love With You)
TTITLE6=Half As Much
TTITLE7=Kawa-Liga
TTITLE8=Cold, Cold Heart
TTITLE9=Why Dont You Love Me
TTITLE10=Move It On Over
TTITLE11=Wedding Bells
TTITLE12=Mansion On A Hill
TTITLE13=I Just Dont Like This Kind Of Livin'
TTITLE14=My Son Calls Another Man Daddy
TTITLE15=I'll Never Get Out Of This World Alive
EXTD=
EXTT0=
EXTT1=
EXTT2=
EXTT3=
EXTT4=
EXTT5=
EXTT6=
EXTT7=
EXTT8=
EXTT9=
EXTT10=
EXTT11=
EXTT12=
EXTT13=
EXTT14=
EXTT15=
PLAYORDER=
